<svg width="463" height="192" viewBox="0 0 463 192" fill="none" xmlns="http://www.w3.org/2000/svg">
<rect x="76" y="115" width="54" height="25" rx="2" fill="#BFBFBF"/>
<rect x="36" y="55" width="33" height="40" rx="1" fill="#A20E0E"/>
<rect y="91" width="81" height="60" rx="2" fill="#4763EB"/>
<rect x="58" y="41" width="47" height="21" rx="1" fill="#322797"/>
<rect x="55" y="58" width="83" height="61" rx="3" fill="#FF5C5C"/>
<path d="M169.608 58.952C168.744 58.952 167.544 58.904 166.008 58.808C164.52 58.664 163.056 58.472 161.616 58.232C160.176 57.992 159.072 57.656 158.304 57.224C157.296 56.6 156.384 55.856 155.568 54.992C154.704 54.128 154.272 53.12 154.272 51.968C154.272 50.576 154.848 49.352 156 48.296C157.152 47.192 158.568 46.28 160.248 45.56C161.976 44.84 163.728 44.288 165.504 43.904C167.28 43.472 168.792 43.232 170.04 43.184C170.616 43.136 171.168 43.112 171.696 43.112C172.272 43.112 172.848 43.112 173.424 43.112C178.704 43.112 183.96 43.664 189.192 44.768C194.424 45.872 199.584 47.024 204.672 48.224C207.84 48.992 211.104 49.712 214.464 50.384C217.824 51.056 221.16 51.392 224.472 51.392C225 51.392 225.672 51.368 226.488 51.32C227.304 51.224 228.024 51.032 228.648 50.744C229.32 50.456 229.656 50 229.656 49.376C229.656 48.896 229.488 48.56 229.152 48.368C228.864 48.128 228.552 47.936 228.216 47.792C227.88 47.6 227.712 47.336 227.712 47C227.712 46.712 227.832 46.448 228.072 46.208C228.36 45.968 228.672 45.848 229.008 45.848C229.488 45.848 229.992 46.064 230.52 46.496C231.096 46.928 231.576 47.432 231.96 48.008C232.392 48.584 232.608 49.112 232.608 49.592C232.608 50.696 232.128 51.536 231.168 52.112C230.208 52.64 229.08 53 227.784 53.192C226.536 53.336 225.456 53.408 224.544 53.408C221.232 53.408 217.896 53.072 214.536 52.4C211.224 51.728 207.96 51.008 204.744 50.24C199.704 49.04 194.568 47.912 189.336 46.856C184.152 45.752 178.92 45.2 173.64 45.2C173.064 45.2 172.488 45.2 171.912 45.2C171.384 45.2 170.832 45.224 170.256 45.272C168.912 45.368 167.352 45.632 165.576 46.064C163.8 46.448 162.12 47 160.536 47.72C159 48.44 157.872 49.352 157.152 50.456C156.816 50.936 156.648 51.392 156.648 51.824C156.648 52.592 156.984 53.288 157.656 53.912C158.376 54.536 159.072 55.04 159.744 55.424C160.368 55.808 161.304 56.12 162.552 56.36C163.848 56.552 165.144 56.696 166.44 56.792C167.784 56.84 168.816 56.864 169.536 56.864C171.504 56.864 173.448 56.744 175.368 56.504C177.288 56.264 179.16 55.904 180.984 55.424C181.272 55.328 181.752 55.16 182.424 54.92C183.096 54.68 183.816 54.44 184.584 54.2C185.4 53.912 186.072 53.672 186.6 53.48C187.176 53.24 187.488 53.12 187.536 53.12C187.92 53.12 188.232 53.264 188.472 53.552C188.712 53.792 188.832 54.056 188.832 54.344C188.832 54.68 188.592 54.968 188.112 55.208C187.2 55.688 186.168 56.12 185.016 56.504C183.864 56.84 182.736 57.152 181.632 57.44C177.744 58.448 173.736 58.952 169.608 58.952ZM179.832 94.88C179.064 94.88 178.68 94.52 178.68 93.8C178.68 93.272 178.8 92.648 179.04 91.928C179.328 91.208 179.568 90.608 179.76 90.128C180.912 87.296 182.256 84.488 183.792 81.704C185.376 78.92 186.912 76.16 188.4 73.424C188.832 72.608 189.48 71.456 190.344 69.968C191.208 68.432 192.072 66.8 192.936 65.072C193.848 63.296 194.616 61.664 195.24 60.176C195.912 58.688 196.248 57.56 196.248 56.792C196.248 56.552 196.2 56.36 196.104 56.216C196.008 56.024 195.96 55.832 195.96 55.64C195.96 55.4 196.08 55.184 196.32 54.992C196.56 54.8 196.848 54.704 197.184 54.704C197.808 54.704 198.192 54.944 198.336 55.424C198.48 55.904 198.552 56.36 198.552 56.792C198.552 57.752 198.24 59.024 197.616 60.608C196.992 62.144 196.224 63.8 195.312 65.576C194.448 67.304 193.584 68.96 192.72 70.544C191.856 72.08 191.16 73.328 190.632 74.288C189.144 76.976 187.632 79.688 186.096 82.424C184.56 85.16 183.216 87.944 182.064 90.776C181.872 91.304 181.68 91.832 181.488 92.36C181.344 92.888 181.2 93.416 181.056 93.944C180.912 94.568 180.504 94.88 179.832 94.88ZM208.618 92.288C207.034 92.288 205.93 91.88 205.306 91.064C204.73 90.2 204.442 89.168 204.442 87.968C204.442 86.816 204.634 85.616 205.018 84.368C205.402 83.12 205.81 81.968 206.242 80.912C206.722 79.808 207.106 78.992 207.394 78.464C208.258 76.976 209.218 75.536 210.274 74.144C211.378 72.752 212.554 71.528 213.802 70.472C215.05 69.368 216.322 68.528 217.618 67.952C218.962 67.328 220.306 67.016 221.65 67.016C223.954 67.016 225.586 67.64 226.546 68.888C227.506 70.088 227.986 71.384 227.986 72.776C227.986 73.256 227.914 73.76 227.77 74.288C227.578 75.008 227.338 75.632 227.05 76.16C226.81 76.688 226.498 76.952 226.114 76.952C225.778 76.952 225.466 76.784 225.178 76.448C224.89 76.112 224.794 75.776 224.89 75.44C224.986 75.104 225.106 74.768 225.25 74.432C225.442 74.096 225.562 73.76 225.61 73.424C225.658 73.184 225.682 72.968 225.682 72.776C225.73 72.584 225.754 72.392 225.754 72.2C225.754 70.904 225.322 70.016 224.458 69.536C223.642 69.008 222.754 68.744 221.794 68.744C220.69 68.744 219.538 69.056 218.338 69.68C217.186 70.304 216.178 71.024 215.314 71.84C214.258 72.896 213.202 74.12 212.146 75.512C211.09 76.904 210.178 78.32 209.41 79.76C209.314 80 209.05 80.576 208.618 81.488C208.234 82.4 207.85 83.432 207.466 84.584C207.13 85.688 206.962 86.72 206.962 87.68C206.962 88.352 207.106 88.928 207.394 89.408C207.73 89.888 208.282 90.128 209.05 90.128C209.866 90.128 210.802 89.744 211.858 88.976C212.962 88.208 214.066 87.272 215.17 86.168C216.322 85.016 217.354 83.912 218.266 82.856C219.178 81.8 219.85 80.984 220.282 80.408C220.57 80.024 220.834 79.616 221.074 79.184C221.362 78.704 221.65 78.272 221.938 77.888C222.082 77.696 222.37 77.6 222.802 77.6C223.186 77.6 223.57 77.72 223.954 77.96C224.386 78.152 224.554 78.44 224.458 78.824C224.266 79.16 223.906 79.904 223.378 81.056C222.898 82.16 222.442 83.384 222.01 84.728C221.578 86.024 221.362 87.176 221.362 88.184C221.362 89.432 221.746 90.152 222.514 90.344C223.042 90.44 223.594 90.248 224.17 89.768C224.794 89.288 225.346 88.736 225.826 88.112C226.354 87.488 226.738 87.032 226.978 86.744C227.986 85.4 228.922 84.032 229.786 82.64C230.698 81.2 231.61 79.856 232.522 78.608C232.81 78.224 233.146 78.032 233.53 78.032C234.202 78.032 234.538 78.392 234.538 79.112C234.538 79.352 234.226 79.976 233.602 80.984C232.978 81.944 232.21 83.048 231.298 84.296C230.434 85.544 229.618 86.672 228.85 87.68C228.082 88.688 227.218 89.672 226.258 90.632C225.298 91.592 224.074 92.072 222.586 92.072C221.194 92.072 220.234 91.76 219.706 91.136C219.226 90.512 218.986 89.816 218.986 89.048C218.986 88.376 219.058 87.68 219.202 86.96C219.346 86.192 219.49 85.544 219.634 85.016L219.346 84.8C218.914 85.328 218.266 86 217.402 86.816C216.538 87.632 215.578 88.472 214.522 89.336C213.466 90.152 212.41 90.848 211.354 91.424C210.346 92 209.434 92.288 208.618 92.288ZM218.671 116.552C217.759 116.552 217.111 116.288 216.727 115.76C216.295 115.28 216.079 114.656 216.079 113.888C216.079 112.928 216.295 111.848 216.727 110.648C217.111 109.496 217.591 108.32 218.167 107.12C218.695 105.92 219.223 104.864 219.751 103.952C220.279 103.04 220.663 102.368 220.903 101.936C222.103 99.872 223.375 97.856 224.719 95.888C226.063 93.92 227.479 91.976 228.967 90.056C230.36 88.28 231.776 86.528 233.216 84.8C234.656 83.024 236.168 81.32 237.752 79.688C237.896 78.824 237.992 77.936 238.04 77.024C238.088 76.112 238.112 75.2 238.112 74.288C238.112 73.76 238.112 73.256 238.112 72.776C238.112 72.296 238.088 71.84 238.04 71.408C237.992 71.024 237.896 70.64 237.752 70.256C237.608 69.872 237.464 69.512 237.32 69.176C237.32 69.08 237.296 68.984 237.248 68.888C237.248 68.792 237.248 68.72 237.248 68.672C237.248 68.384 237.536 68.144 238.112 67.952C238.688 67.76 239.144 67.664 239.48 67.664C240.248 67.664 240.704 68.096 240.848 68.96C240.992 69.776 241.064 70.448 241.064 70.976C241.064 71.984 240.992 72.992 240.848 74C240.752 74.96 240.656 75.92 240.56 76.88C241.088 76.352 241.808 75.68 242.72 74.864C243.68 74 244.688 73.136 245.744 72.272C246.848 71.408 247.928 70.688 248.984 70.112C250.088 69.536 251.072 69.248 251.936 69.248C253.328 69.248 254.384 69.752 255.104 70.76C255.872 71.72 256.376 72.824 256.616 74.072C256.904 75.32 257.024 76.4 256.976 77.312C257.408 77.216 258.224 77.144 259.424 77.096C260.672 77 261.68 76.952 262.448 76.952C263.072 76.952 263.456 77.048 263.6 77.24C263.792 77.384 263.888 77.576 263.888 77.816C263.888 77.96 263.816 78.128 263.672 78.32C263.528 78.512 263.264 78.632 262.88 78.68C262.304 78.728 261.584 78.824 260.72 78.968C259.904 79.064 259.112 79.184 258.344 79.328C257.576 79.424 257 79.544 256.616 79.688C256.232 81.32 255.464 83 254.312 84.728C253.16 86.408 251.744 87.992 250.064 89.48C248.384 90.92 246.56 92.072 244.592 92.936C242.624 93.848 240.632 94.304 238.616 94.304C238.04 94.304 237.416 94.232 236.744 94.088L236.312 95.168C235.592 96.8 234.632 98.744 233.432 101C232.28 103.304 230.936 105.536 229.399 107.696C228.967 108.272 228.367 109.04 227.599 110C226.831 111.008 225.967 111.992 225.007 112.952C223.999 113.96 222.943 114.8 221.839 115.472C220.735 116.192 219.679 116.552 218.671 116.552ZM239.48 84.152C241.832 82.568 244.232 81.272 246.68 80.264C249.128 79.256 251.768 78.44 254.6 77.816C254.744 77 254.816 76.208 254.816 75.44C254.816 74.96 254.744 74.408 254.6 73.784C254.504 73.112 254.264 72.512 253.88 71.984C253.544 71.456 253.016 71.192 252.296 71.192C251.528 71.192 250.544 71.6 249.344 72.416C248.192 73.184 246.968 74.12 245.672 75.224C244.424 76.328 243.272 77.384 242.216 78.392C241.16 79.4 240.416 80.144 239.984 80.624L239.48 84.152ZM239.191 92.288C241.112 92.288 242.984 91.76 244.808 90.704C246.68 89.6 248.336 88.28 249.776 86.744C251.264 85.208 252.368 83.768 253.088 82.424C253.28 82.04 253.448 81.656 253.592 81.272C253.736 80.888 253.904 80.528 254.096 80.192C251.072 80.96 248.312 81.92 245.816 83.072C243.368 84.176 240.968 85.64 238.616 87.464C238.424 88.232 238.232 89 238.04 89.768C237.896 90.488 237.704 91.232 237.464 92C237.896 92.192 238.472 92.288 239.191 92.288ZM219.319 114.176C219.991 114.176 220.783 113.792 221.695 113.024C222.559 112.304 223.471 111.416 224.431 110.36C225.343 109.304 226.159 108.296 226.879 107.336C227.599 106.376 228.103 105.68 228.391 105.248C229.879 102.992 231.176 100.688 232.28 98.336C233.384 96.032 234.128 94.136 234.512 92.648C234.368 92.408 234.272 92.144 234.224 91.856C234.176 91.568 234.152 91.28 234.152 90.992C234.152 90.128 234.368 89.288 234.8 88.472C235.232 87.656 235.784 86.936 236.456 86.312C236.552 85.976 236.648 85.616 236.744 85.232C236.84 84.848 236.912 84.464 236.96 84.08C235.616 85.616 234.464 86.936 233.504 88.04C232.592 89.144 231.728 90.224 230.912 91.28C229.424 93.2 228.007 95.144 226.663 97.112C225.319 99.08 224.047 101.12 222.847 103.232C222.607 103.664 222.247 104.312 221.767 105.176C221.287 106.04 220.807 106.976 220.327 107.984C219.799 109.04 219.367 110.024 219.031 110.936C218.695 111.896 218.527 112.664 218.527 113.24C218.527 113.864 218.791 114.176 219.319 114.176ZM294.151 97.184C293.047 97.184 291.751 97.088 290.263 96.896C288.823 96.704 287.575 96.296 286.519 95.672C285.463 95.048 284.935 94.088 284.935 92.792C284.935 91.352 285.367 90.08 286.231 88.976C287.095 87.824 288.223 86.84 289.615 86.024C291.007 85.16 292.447 84.44 293.935 83.864C295.471 83.24 296.887 82.736 298.183 82.352C298.279 82.208 298.351 82.088 298.399 81.992C298.447 81.848 298.495 81.704 298.543 81.56C299.935 78.104 301.759 74.672 304.015 71.264C306.319 67.808 308.575 64.544 310.783 61.472C311.743 60.176 312.727 58.856 313.735 57.512C314.743 56.168 315.775 54.896 316.831 53.696C317.167 53.312 317.503 52.976 317.839 52.688C318.223 52.352 318.607 52.016 318.991 51.68C317.407 51.536 315.775 51.464 314.095 51.464C312.415 51.464 310.735 51.536 309.055 51.68C306.943 51.872 304.855 52.136 302.791 52.472C300.727 52.76 298.663 53.192 296.599 53.768C293.959 54.536 291.415 55.64 288.967 57.08C286.567 58.472 284.599 60.2 283.063 62.264C281.527 64.28 280.759 66.632 280.759 69.32C280.759 70.088 280.831 70.88 280.975 71.696C281.167 72.464 281.455 73.208 281.839 73.928C282.223 74.696 282.655 75.32 283.135 75.8C283.663 76.232 284.383 76.64 285.295 77.024C285.535 77.12 285.727 77.24 285.871 77.384C286.063 77.48 286.159 77.672 286.159 77.96C286.159 78.248 286.039 78.512 285.799 78.752C285.607 78.992 285.343 79.112 285.007 79.112C284.959 79.112 284.887 79.112 284.791 79.112C284.743 79.064 284.695 79.04 284.647 79.04C283.159 78.656 281.935 77.936 280.975 76.88C280.063 75.776 279.391 74.552 278.959 73.208C278.527 71.816 278.311 70.52 278.311 69.32C278.311 66.344 279.103 63.728 280.687 61.472C282.271 59.168 284.359 57.224 286.951 55.64C289.591 54.008 292.399 52.76 295.375 51.896C297.583 51.224 299.815 50.744 302.071 50.456C304.327 50.12 306.607 49.856 308.911 49.664C309.727 49.568 310.543 49.52 311.359 49.52C312.223 49.52 313.063 49.52 313.879 49.52C315.079 49.52 316.255 49.544 317.407 49.592C318.607 49.64 319.807 49.712 321.007 49.808C321.247 49.616 321.463 49.448 321.655 49.304C321.847 49.112 322.039 48.92 322.231 48.728C322.375 48.488 322.519 48.32 322.663 48.224C322.807 48.08 323.047 48.008 323.383 48.008C324.103 48.008 324.463 48.32 324.463 48.944C324.463 49.328 324.319 49.712 324.031 50.096C326.431 50.432 328.759 50.96 331.015 51.68C333.271 52.4 335.311 53.36 337.135 54.56C339.007 55.712 340.471 57.176 341.527 58.952C342.631 60.68 343.183 62.744 343.183 65.144C343.183 68.024 342.487 70.808 341.095 73.496C339.703 76.136 337.831 78.608 335.479 80.912C333.127 83.216 330.487 85.304 327.559 87.176C324.631 89.048 321.607 90.656 318.487 92C315.367 93.344 312.343 94.376 309.415 95.096C306.967 95.72 304.447 96.224 301.855 96.608C299.263 96.992 296.695 97.184 294.151 97.184ZM293.431 95.24C295.975 95.24 298.567 95.024 301.207 94.592C303.847 94.208 306.391 93.704 308.839 93.08C311.527 92.408 314.335 91.448 317.263 90.2C320.191 88.952 323.047 87.464 325.831 85.736C328.663 83.96 331.183 81.992 333.391 79.832C335.647 77.672 337.447 75.368 338.791 72.92C340.135 70.424 340.807 67.832 340.807 65.144C340.807 62.84 340.231 60.896 339.079 59.312C337.975 57.728 336.487 56.432 334.615 55.424C332.743 54.416 330.679 53.648 328.423 53.12C326.215 52.544 324.007 52.136 321.799 51.896C321.271 52.376 320.743 52.88 320.215 53.408C319.735 53.936 319.255 54.464 318.775 54.992C317.431 56.576 315.895 58.52 314.167 60.824C312.439 63.08 310.711 65.48 308.983 68.024C307.255 70.568 305.671 73.04 304.231 75.44C302.839 77.84 301.783 79.928 301.063 81.704C302.935 81.368 304.831 81.104 306.751 80.912C308.671 80.672 310.591 80.552 312.511 80.552C313.759 80.552 315.103 80.696 316.543 80.984C317.983 81.224 319.111 81.8 319.927 82.712C320.023 82.808 320.095 82.904 320.143 83C320.191 83.096 320.215 83.216 320.215 83.36C320.215 83.648 320.071 83.888 319.783 84.08C319.543 84.272 319.279 84.368 318.991 84.368C318.607 84.368 318.271 84.224 317.983 83.936C317.311 83.312 316.471 82.952 315.463 82.856C314.503 82.712 313.543 82.64 312.583 82.64C310.519 82.64 308.431 82.784 306.319 83.072C304.255 83.312 302.215 83.648 300.199 84.08C300.055 84.608 299.911 85.16 299.767 85.736C299.671 86.264 299.623 86.792 299.623 87.32C299.623 88.424 299.815 89.168 300.199 89.552C300.583 89.888 300.967 90.104 301.351 90.2C301.735 90.296 301.927 90.584 301.927 91.064C301.927 91.304 301.807 91.544 301.567 91.784C301.375 91.976 301.135 92.072 300.847 92.072C300.607 92.072 300.439 92.048 300.343 92C299.431 91.616 298.759 91.016 298.327 90.2C297.943 89.384 297.703 88.496 297.607 87.536C297.559 86.528 297.559 85.664 297.607 84.944C296.359 85.328 294.919 85.88 293.287 86.6C291.703 87.272 290.311 88.136 289.111 89.192C287.959 90.2 287.383 91.424 287.383 92.864C287.383 93.584 287.767 94.112 288.535 94.448C289.303 94.784 290.167 95 291.127 95.096C292.087 95.192 292.855 95.24 293.431 95.24ZM350.106 92.72C347.61 92.72 345.858 92 344.85 90.56C343.89 89.072 343.41 87.344 343.41 85.376C343.41 83.936 343.77 82.232 344.49 80.264C345.21 78.248 346.194 76.28 347.442 74.36C348.738 72.44 350.226 70.856 351.906 69.608C353.586 68.312 355.386 67.664 357.306 67.664C358.554 67.664 359.538 68.024 360.258 68.744C361.026 69.416 361.41 70.28 361.41 71.336C361.41 73.352 360.762 75.296 359.466 77.168C358.17 79.04 356.49 80.576 354.426 81.776C352.362 82.976 350.154 83.576 347.802 83.576C347.514 83.576 347.226 83.576 346.938 83.576C346.65 83.528 346.362 83.48 346.074 83.432C345.93 84.056 345.858 84.776 345.858 85.592C345.858 86.84 346.146 87.992 346.722 89.048C347.346 90.104 348.522 90.632 350.25 90.632C351.69 90.632 353.082 90.272 354.426 89.552C355.77 88.832 356.898 88.016 357.81 87.104C358.722 86.192 359.49 85.376 360.114 84.656C360.738 83.936 361.386 83.12 362.058 82.208C362.73 81.248 363.57 80 364.578 78.464C364.77 78.128 365.058 77.96 365.442 77.96C366.114 77.96 366.45 78.32 366.45 79.04C366.45 79.28 366.402 79.472 366.306 79.616C365.01 81.824 363.57 83.936 361.986 85.952C360.402 87.92 358.626 89.552 356.658 90.848C354.738 92.096 352.554 92.72 350.106 92.72ZM348.306 81.344C350.13 81.344 351.834 80.864 353.418 79.904C355.05 78.896 356.37 77.648 357.378 76.16C358.434 74.672 358.962 73.16 358.962 71.624C358.962 71.096 358.818 70.664 358.53 70.328C358.29 69.992 357.858 69.824 357.234 69.824C355.986 69.824 354.786 70.256 353.634 71.12C352.482 71.936 351.426 72.992 350.466 74.288C349.554 75.536 348.762 76.784 348.09 78.032C347.466 79.28 347.01 80.336 346.722 81.2C346.962 81.248 347.202 81.296 347.442 81.344C347.73 81.344 348.018 81.344 348.306 81.344ZM366.058 92.72C363.706 92.72 361.906 92.24 360.658 91.28C359.41 90.32 358.786 89.312 358.786 88.256C358.786 87.488 359.122 86.816 359.794 86.24C360.418 85.616 361.498 85.304 363.034 85.304C363.994 85.304 365.146 85.448 366.49 85.736C367.498 85.976 368.554 86.288 369.658 86.672C370.81 87.056 371.986 87.224 373.186 87.176C373.522 86.648 373.714 86.216 373.762 85.88C373.81 85.544 373.834 85.136 373.834 84.656C373.834 83.072 373.57 81.752 373.042 80.696C372.562 79.64 371.986 78.608 371.314 77.6C370.69 76.592 370.162 75.368 369.73 73.928C369.106 74.984 368.314 76.376 367.354 78.104C366.394 79.784 364.81 82.088 362.602 85.016C362.458 85.256 362.17 85.376 361.738 85.376C361.018 85.376 360.658 85.064 360.658 84.44C360.658 84.296 360.778 84.08 361.018 83.792C361.21 83.504 361.69 82.76 362.458 81.56C363.322 80.168 364.33 78.608 365.482 76.88C366.634 75.104 367.738 73.16 368.794 71.048C368.842 70.232 369.01 69.44 369.298 68.672C369.586 67.904 369.922 67.208 370.306 66.584C370.834 65.72 371.386 65.096 371.962 64.712C372.538 64.28 373.066 64.064 373.546 64.064C374.458 64.064 374.914 64.592 374.914 65.648C374.914 66.368 374.626 67.304 374.05 68.456C373.714 69.176 373.282 69.8 372.754 70.328C372.226 70.808 371.77 71.24 371.386 71.624C371.482 72.824 371.77 73.904 372.25 74.864C372.73 75.824 373.258 76.76 373.834 77.672C374.458 78.584 374.986 79.568 375.418 80.624C375.85 81.68 376.066 82.952 376.066 84.44C376.066 85.4 375.898 86.288 375.562 87.104C376.618 87.152 377.698 86.768 378.802 85.952C379.954 85.088 381.034 83.984 382.042 82.64C383.098 81.296 384.034 79.928 384.85 78.536C385.09 78.2 385.402 78.032 385.786 78.032C386.026 78.032 386.266 78.104 386.506 78.248C386.746 78.392 386.866 78.632 386.866 78.968C386.866 79.16 386.794 79.4 386.65 79.688C385.258 82.184 383.914 84.128 382.618 85.52C381.37 86.864 380.098 87.8 378.802 88.328C377.506 88.856 376.066 89.168 374.482 89.264C373.282 90.368 371.986 91.232 370.594 91.856C369.25 92.432 367.738 92.72 366.058 92.72ZM365.698 90.992C366.802 90.992 367.762 90.824 368.578 90.488C369.394 90.152 370.282 89.672 371.242 89.048C370.234 88.904 369.394 88.736 368.722 88.544C368.05 88.304 367.186 88.064 366.13 87.824C364.786 87.536 363.73 87.392 362.962 87.392C361.57 87.392 360.874 87.728 360.874 88.4C360.874 88.928 361.33 89.504 362.242 90.128C363.154 90.704 364.306 90.992 365.698 90.992ZM395.88 62.624C395.64 62.624 395.376 62.576 395.088 62.48C394.8 62.384 394.656 62.168 394.656 61.832C394.656 61.592 394.728 61.376 394.872 61.184C395.256 60.464 395.952 59.84 396.96 59.312C398.016 58.784 398.808 58.52 399.336 58.52C399.576 58.52 399.84 58.592 400.128 58.736C400.416 58.832 400.56 59.048 400.56 59.384C400.56 60.2 400.056 60.944 399.048 61.616C398.088 62.288 397.032 62.624 395.88 62.624ZM387.816 92.072C386.184 92.072 384.888 91.616 383.928 90.704C382.968 89.792 382.488 88.52 382.488 86.888C382.488 85.928 382.584 84.992 382.776 84.08C382.968 83.12 383.232 82.184 383.568 81.272C383.76 80.744 384.144 79.88 384.72 78.68C385.344 77.432 386.064 76.136 386.88 74.792C387.696 73.4 388.488 72.224 389.256 71.264C390.024 70.304 390.696 69.824 391.272 69.824C391.512 69.824 391.824 69.92 392.208 70.112C392.64 70.256 392.856 70.496 392.856 70.832C392.856 71.024 392.76 71.264 392.568 71.552C391.464 72.8 390.312 74.288 389.112 76.016C387.912 77.744 386.904 79.544 386.088 81.416C385.272 83.288 384.864 85.088 384.864 86.816C384.864 89.024 385.92 90.128 388.032 90.128C389.472 90.128 390.912 89.432 392.352 88.04C393.84 86.648 395.472 84.776 397.248 82.424C397.776 81.752 398.232 81.104 398.616 80.48C399.048 79.808 399.432 79.232 399.768 78.752C400.104 78.416 400.464 78.248 400.848 78.248C401.424 78.248 401.712 78.464 401.712 78.896C401.712 79.424 401.328 80.264 400.56 81.416C399.792 82.568 398.928 83.768 397.968 85.016C396.096 87.32 394.464 89.072 393.072 90.272C391.68 91.472 389.928 92.072 387.816 92.072ZM391.489 118.856C390.097 118.856 388.945 118.52 388.033 117.848C387.073 117.224 386.473 116.24 386.233 114.896C386.041 113.504 386.569 112.04 387.817 110.504C389.065 108.968 390.625 107.456 392.497 105.968C393.985 104.768 395.545 103.64 397.177 102.584C398.809 101.576 400.321 100.64 401.713 99.776C403.153 98.96 404.305 98.312 405.169 97.832C406.993 96.728 408.865 95.576 410.785 94.376C412.705 93.224 414.553 92.096 416.329 90.992C416.905 89.264 417.265 87.536 417.409 85.808C417.601 84.032 417.673 82.304 417.625 80.624C417.097 81.44 416.329 82.52 415.321 83.864C414.361 85.208 413.209 86.552 411.865 87.896C410.569 89.24 409.153 90.392 407.617 91.352C406.081 92.264 404.497 92.72 402.865 92.72C400.801 92.72 399.385 92.12 398.617 90.92C397.849 89.72 397.465 88.304 397.465 86.672C397.465 85.232 397.657 83.768 398.041 82.28C398.473 80.792 398.929 79.592 399.409 78.68C400.369 76.712 401.569 74.792 403.009 72.92C404.497 71.048 406.153 69.512 407.977 68.312C409.849 67.112 411.745 66.512 413.665 66.512C415.057 66.512 416.065 66.92 416.689 67.736C417.361 68.552 417.697 69.488 417.697 70.544C417.697 70.88 417.601 71.408 417.409 72.128C417.217 72.848 416.953 73.592 416.617 74.36C416.329 75.128 415.969 75.8 415.537 76.376C415.105 76.904 414.625 77.168 414.097 77.168C413.761 77.168 413.473 77.072 413.233 76.88C412.993 76.64 412.873 76.4 412.873 76.16C412.873 76.016 413.065 75.68 413.449 75.152C413.833 74.624 414.217 73.976 414.601 73.208C414.985 72.44 415.177 71.624 415.177 70.76C415.177 70.232 415.033 69.752 414.745 69.32C414.505 68.888 414.025 68.672 413.305 68.672C411.817 68.672 410.329 69.2 408.841 70.256C407.401 71.312 406.081 72.632 404.881 74.216C403.681 75.8 402.673 77.432 401.857 79.112C401.521 79.832 401.137 80.912 400.705 82.352C400.273 83.792 400.057 85.184 400.057 86.528C400.057 87.68 400.297 88.664 400.777 89.48C401.257 90.248 402.097 90.632 403.297 90.632C404.353 90.632 405.481 90.224 406.681 89.408C407.929 88.592 409.177 87.56 410.425 86.312C411.673 85.016 412.801 83.696 413.809 82.352C414.865 80.96 415.705 79.712 416.329 78.608C417.001 77.504 417.361 76.712 417.409 76.232C417.457 75.992 417.601 75.728 417.841 75.44C418.081 75.152 418.369 75.008 418.705 75.008C419.089 75.008 419.353 75.128 419.497 75.368C419.641 75.608 419.737 75.848 419.785 76.088C420.121 77.384 420.289 78.896 420.289 80.624C420.289 82.016 420.193 83.432 420.001 84.872C419.857 86.312 419.689 87.608 419.497 88.76C421.129 87.416 422.617 85.808 423.961 83.936C425.353 82.016 426.601 80.216 427.705 78.536C427.945 78.152 428.233 77.96 428.569 77.96C428.809 77.96 429.025 78.056 429.217 78.248C429.457 78.44 429.577 78.68 429.577 78.968C429.577 79.16 429.505 79.4 429.361 79.688C427.873 82.088 426.289 84.392 424.609 86.6C422.977 88.76 420.889 90.68 418.345 92.36C417.001 96.2 415.153 99.824 412.801 103.232C410.497 106.688 407.929 109.664 405.097 112.16C402.313 114.704 399.505 116.552 396.673 117.704C395.761 118.088 394.873 118.376 394.009 118.568C393.097 118.76 392.257 118.856 391.489 118.856ZM391.489 117.056C392.065 117.056 392.689 116.96 393.361 116.768C394.033 116.576 394.729 116.336 395.449 116.048C398.329 114.752 400.945 113.048 403.297 110.936C405.697 108.872 407.785 106.568 409.561 104.024C411.385 101.48 412.849 98.936 413.953 96.392C414.049 96.104 414.169 95.816 414.313 95.528C414.457 95.24 414.601 94.952 414.745 94.664C413.353 95.432 412.009 96.248 410.713 97.112C409.417 98.024 408.073 98.864 406.681 99.632C405.913 100.064 404.785 100.712 403.297 101.576C401.809 102.44 400.201 103.4 398.473 104.456C396.745 105.56 395.137 106.712 393.649 107.912C392.209 109.016 391.009 110.12 390.049 111.224C389.089 112.328 388.609 113.36 388.609 114.32C388.609 115.28 388.897 115.976 389.473 116.408C390.001 116.84 390.673 117.056 391.489 117.056ZM431.502 92.216C431.262 92.216 430.998 92.144 430.71 92C430.422 91.856 430.278 91.664 430.278 91.424C430.278 91.04 430.35 90.704 430.494 90.416C431.022 89.264 431.694 87.848 432.51 86.168C433.374 84.488 434.214 82.76 435.03 80.984C435.894 79.16 436.614 77.456 437.19 75.872C437.814 74.288 438.126 73.016 438.126 72.056C438.126 71.768 438.054 71.504 437.91 71.264C437.814 70.976 437.574 70.832 437.19 70.832C436.614 70.832 436.038 71.072 435.462 71.552C434.934 72.032 434.454 72.584 434.022 73.208C433.59 73.784 433.23 74.264 432.942 74.648C431.982 75.944 431.166 77.144 430.494 78.248C429.822 79.304 429.126 80.36 428.406 81.416C427.734 82.424 426.894 83.552 425.886 84.8C425.742 84.992 425.574 85.16 425.382 85.304C425.238 85.4 425.022 85.448 424.734 85.448C424.446 85.448 424.206 85.304 424.014 85.016C423.774 84.728 423.726 84.464 423.87 84.224C424.926 82.544 425.958 80.96 426.966 79.472C427.974 77.936 428.862 76.616 429.63 75.512C430.398 74.408 430.926 73.664 431.214 73.28C432.03 72.224 432.87 71.216 433.734 70.256C434.646 69.296 435.87 68.816 437.406 68.816C438.702 68.816 439.59 69.176 440.07 69.896C440.598 70.616 440.862 71.456 440.862 72.416C440.862 74.144 440.142 76.376 438.702 79.112C440.478 77.24 442.374 75.536 444.39 74C446.454 72.464 448.374 71.192 450.15 70.184C451.926 69.128 453.27 68.48 454.182 68.24C454.614 68.096 455.046 67.976 455.478 67.88C455.958 67.784 456.39 67.736 456.774 67.736C457.254 67.736 457.638 67.856 457.926 68.096C458.262 68.336 458.43 68.792 458.43 69.464C458.43 70.136 457.998 71.096 457.134 72.344C456.27 73.544 455.214 74.936 453.966 76.52C452.766 78.056 451.614 79.616 450.51 81.2C449.406 82.784 448.614 84.272 448.134 85.664C447.99 86 447.894 86.336 447.846 86.672C447.798 86.96 447.774 87.224 447.774 87.464C447.774 88.76 448.374 89.408 449.574 89.408C450.342 89.408 451.302 89.024 452.454 88.256C453.126 87.824 453.774 87.344 454.398 86.816C455.07 86.24 455.574 85.736 455.91 85.304C456.63 84.488 457.206 83.792 457.638 83.216C458.118 82.64 458.574 82.016 459.006 81.344C459.486 80.624 460.086 79.736 460.806 78.68C460.95 78.44 461.094 78.272 461.238 78.176C461.382 78.08 461.622 78.032 461.958 78.032C462.486 78.032 462.75 78.368 462.75 79.04C462.75 79.328 462.534 79.832 462.102 80.552C461.67 81.224 461.142 81.992 460.518 82.856C459.942 83.672 459.366 84.44 458.79 85.16C458.262 85.832 457.878 86.312 457.638 86.6C457.11 87.224 456.438 87.872 455.622 88.544C454.854 89.216 454.062 89.792 453.246 90.272C452.478 90.704 451.686 91.016 450.87 91.208C450.054 91.4 449.262 91.496 448.494 91.496C447.246 91.496 446.334 91.136 445.758 90.416C445.23 89.696 444.966 88.928 444.966 88.112C444.966 86.864 445.374 85.448 446.19 83.864C447.054 82.232 448.062 80.624 449.214 79.04C450.414 77.408 451.518 75.944 452.526 74.648C453.582 73.352 454.302 72.416 454.686 71.84C454.782 71.696 454.854 71.576 454.902 71.48C454.95 71.336 454.974 71.216 454.974 71.12C454.974 70.736 454.686 70.544 454.11 70.544C453.822 70.544 453.486 70.616 453.102 70.76C451.134 71.576 449.07 72.776 446.91 74.36C444.798 75.944 442.83 77.672 441.006 79.544C439.23 81.368 437.814 83.096 436.758 84.728L433.878 89.264C433.638 89.648 433.422 90.056 433.23 90.488C433.038 90.872 432.822 91.256 432.582 91.64C432.294 92.024 431.934 92.216 431.502 92.216Z" fill="black"/>
<path d="M168.094 151.312C164.698 151.312 162.052 150.391 160.156 148.547C158.26 146.693 157.312 144.099 157.312 140.766C157.312 137.161 158.224 134.438 160.047 132.594C161.87 130.74 164.573 129.812 168.156 129.812C170.333 129.812 172.672 130.078 175.172 130.609L175.266 135.188H174.234L173.766 132.469C173.036 132.021 172.188 131.677 171.219 131.438C170.26 131.188 169.281 131.062 168.281 131.062C165.604 131.062 163.651 131.849 162.422 133.422C161.193 134.995 160.578 137.432 160.578 140.734C160.578 143.776 161.219 146.099 162.5 147.703C163.792 149.307 165.667 150.109 168.125 150.109C169.312 150.109 170.432 149.969 171.484 149.688C172.536 149.396 173.37 149.01 173.984 148.531L174.562 145.406H175.578L175.484 150.328C173.193 150.984 170.729 151.312 168.094 151.312ZM192.125 143.578C192.125 148.734 189.833 151.312 185.25 151.312C183.042 151.312 181.375 150.651 180.25 149.328C179.125 148.005 178.562 146.089 178.562 143.578C178.562 141.099 179.125 139.203 180.25 137.891C181.375 136.578 183.083 135.922 185.375 135.922C187.604 135.922 189.286 136.568 190.422 137.859C191.557 139.141 192.125 141.047 192.125 143.578ZM189.312 143.578C189.312 141.328 188.984 139.698 188.328 138.688C187.672 137.677 186.646 137.172 185.25 137.172C183.885 137.172 182.896 137.656 182.281 138.625C181.677 139.594 181.375 141.245 181.375 143.578C181.375 145.943 181.682 147.62 182.297 148.609C182.922 149.589 183.906 150.078 185.25 150.078C186.625 150.078 187.646 149.568 188.312 148.547C188.979 147.526 189.312 145.87 189.312 143.578ZM203.719 135.922V139.891H203.047L202.141 138.172C201.62 138.172 201 138.245 200.281 138.391C199.573 138.526 198.958 138.708 198.438 138.938V149.906L200.953 150.297V151H193.984V150.297L195.844 149.906V137.406L193.984 137.016V136.312H198.266L198.406 138.141C199.031 137.62 199.875 137.12 200.938 136.641C202.01 136.161 202.859 135.922 203.484 135.922H203.719ZM209.922 131.516C209.922 131.974 209.755 132.37 209.422 132.703C209.089 133.036 208.688 133.203 208.219 133.203C207.76 133.203 207.365 133.036 207.031 132.703C206.698 132.37 206.531 131.974 206.531 131.516C206.531 131.047 206.698 130.646 207.031 130.312C207.365 129.979 207.76 129.812 208.219 129.812C208.688 129.812 209.089 129.979 209.422 130.312C209.755 130.646 209.922 131.047 209.922 131.516ZM209.766 149.906L212.281 150.297V151H204.672V150.297L207.172 149.906V137.406L205.094 137.016V136.312H209.766V149.906ZM220.172 135.984C221.776 135.984 222.953 136.312 223.703 136.969C224.464 137.625 224.844 138.63 224.844 139.984V149.906L226.672 150.297V151H222.641L222.344 149.531C221.156 150.719 219.641 151.312 217.797 151.312C215.286 151.312 214.031 149.854 214.031 146.938C214.031 145.958 214.219 145.151 214.594 144.516C214.979 143.87 215.589 143.38 216.422 143.047C217.255 142.703 218.464 142.516 220.047 142.484L222.25 142.422V140.125C222.25 139.115 222.062 138.37 221.688 137.891C221.323 137.411 220.755 137.172 219.984 137.172C218.943 137.172 217.99 137.417 217.125 137.906L216.594 139.734H215.719V136.531C217.406 136.167 218.891 135.984 220.172 135.984ZM222.25 143.516L220.203 143.578C218.807 143.63 217.859 143.901 217.359 144.391C216.87 144.88 216.625 145.698 216.625 146.844C216.625 148.677 217.37 149.594 218.859 149.594C219.568 149.594 220.177 149.516 220.688 149.359C221.208 149.193 221.729 148.984 222.25 148.734V143.516ZM232.188 137.5C232.99 137.042 233.844 136.667 234.75 136.375C235.656 136.073 236.411 135.922 237.016 135.922C238.286 135.922 239.245 136.292 239.891 137.031C240.536 137.771 240.859 138.844 240.859 140.25V149.906L242.641 150.297V151H236.312V150.297L238.266 149.906V140.531C238.266 139.667 238.052 138.99 237.625 138.5C237.208 138 236.557 137.75 235.672 137.75C234.734 137.75 233.583 137.901 232.219 138.203V149.906L234.203 150.297V151H227.859V150.297L229.625 149.906V137.406L227.859 137.016V136.312H232.047L232.188 137.5ZM266.578 134.078C266.578 134.891 266.401 135.594 266.047 136.188C265.703 136.781 265.214 137.307 264.578 137.766C263.943 138.214 262.88 138.729 261.391 139.312L267.984 145.312C268.995 143.25 269.531 141.359 269.594 139.641L267.375 139.219V138.391H274.516V139.219L272.344 139.641C271.552 142.401 270.536 144.698 269.297 146.531L272.859 149.781L275.438 150.172V151H270.062L267.391 148.578C266.307 149.547 265.172 150.245 263.984 150.672C262.807 151.099 261.516 151.312 260.109 151.312C257.526 151.312 255.583 150.812 254.281 149.812C252.99 148.802 252.344 147.344 252.344 145.438C252.344 144.427 252.531 143.557 252.906 142.828C253.281 142.099 253.792 141.479 254.438 140.969C255.083 140.448 256.104 139.922 257.5 139.391C255.927 137.87 255.141 136.167 255.141 134.281C255.141 132.792 255.641 131.661 256.641 130.891C257.641 130.109 259.089 129.719 260.984 129.719C262.797 129.719 264.182 130.089 265.141 130.828C266.099 131.568 266.578 132.651 266.578 134.078ZM260.531 149.969C262.792 149.969 264.719 149.172 266.312 147.578L258.516 140.438C257.422 140.906 256.63 141.542 256.141 142.344C255.651 143.146 255.406 144.12 255.406 145.266C255.406 146.776 255.844 147.938 256.719 148.75C257.604 149.562 258.875 149.969 260.531 149.969ZM257.906 133.969C257.906 135.667 258.708 137.12 260.312 138.328C261.323 137.953 262.047 137.589 262.484 137.234C262.932 136.87 263.266 136.427 263.484 135.906C263.714 135.385 263.828 134.74 263.828 133.969C263.828 131.969 262.88 130.969 260.984 130.969C259.891 130.969 259.104 131.219 258.625 131.719C258.146 132.219 257.906 132.969 257.906 133.969ZM296.125 151.312C292.729 151.312 290.083 150.391 288.188 148.547C286.292 146.693 285.344 144.099 285.344 140.766C285.344 137.161 286.255 134.438 288.078 132.594C289.901 130.74 292.604 129.812 296.188 129.812C298.365 129.812 300.703 130.078 303.203 130.609L303.297 135.188H302.266L301.797 132.469C301.068 132.021 300.219 131.677 299.25 131.438C298.292 131.188 297.312 131.062 296.312 131.062C293.635 131.062 291.682 131.849 290.453 133.422C289.224 134.995 288.609 137.432 288.609 140.734C288.609 143.776 289.25 146.099 290.531 147.703C291.823 149.307 293.698 150.109 296.156 150.109C297.344 150.109 298.464 149.969 299.516 149.688C300.568 149.396 301.401 149.01 302.016 148.531L302.594 145.406H303.609L303.516 150.328C301.224 150.984 298.76 151.312 296.125 151.312ZM320.156 143.578C320.156 148.734 317.865 151.312 313.281 151.312C311.073 151.312 309.406 150.651 308.281 149.328C307.156 148.005 306.594 146.089 306.594 143.578C306.594 141.099 307.156 139.203 308.281 137.891C309.406 136.578 311.115 135.922 313.406 135.922C315.635 135.922 317.318 136.568 318.453 137.859C319.589 139.141 320.156 141.047 320.156 143.578ZM317.344 143.578C317.344 141.328 317.016 139.698 316.359 138.688C315.703 137.677 314.677 137.172 313.281 137.172C311.917 137.172 310.927 137.656 310.312 138.625C309.708 139.594 309.406 141.245 309.406 143.578C309.406 145.943 309.714 147.62 310.328 148.609C310.953 149.589 311.938 150.078 313.281 150.078C314.656 150.078 315.677 149.568 316.344 148.547C317.01 147.526 317.344 145.87 317.344 143.578ZM326.469 137.5C327.25 137.052 328.078 136.677 328.953 136.375C329.828 136.073 330.599 135.922 331.266 135.922C331.984 135.922 332.646 136.057 333.25 136.328C333.865 136.599 334.323 137.031 334.625 137.625C335.427 137.177 336.365 136.781 337.438 136.438C338.521 136.094 339.417 135.922 340.125 135.922C342.625 135.922 343.875 137.365 343.875 140.25V149.906L345.766 150.297V151H339.094V150.297L341.281 149.906V140.531C341.281 138.74 340.448 137.844 338.781 137.844C338.51 137.844 338.193 137.865 337.828 137.906C337.474 137.948 337.115 137.995 336.75 138.047C336.396 138.099 336.052 138.161 335.719 138.234C335.396 138.297 335.125 138.349 334.906 138.391C335.083 138.953 335.172 139.573 335.172 140.25V149.906L337.375 150.297V151H330.406V150.297L332.578 149.906V140.531C332.578 139.667 332.354 139.005 331.906 138.547C331.469 138.078 330.807 137.844 329.922 137.844C329.005 137.844 327.865 137.995 326.5 138.297V149.906L328.703 150.297V151H322.047V150.297L323.906 149.906V137.406L322.047 137.016V136.312H326.344L326.469 137.5ZM348.656 137.406L346.984 137.016V136.312H351.109L351.141 137.172C351.578 136.797 352.161 136.495 352.891 136.266C353.63 136.036 354.38 135.922 355.141 135.922C357.016 135.922 358.464 136.573 359.484 137.875C360.516 139.177 361.031 141.047 361.031 143.484C361.031 145.974 360.469 147.901 359.344 149.266C358.229 150.63 356.615 151.312 354.5 151.312C353.323 151.312 352.203 151.198 351.141 150.969C351.203 151.719 351.234 152.307 351.234 152.734V156.703L353.797 157.078V157.812H346.797V157.078L348.656 156.703V137.406ZM358.219 143.484C358.219 141.484 357.891 140 357.234 139.031C356.589 138.052 355.604 137.562 354.281 137.562C353.062 137.562 352.047 137.734 351.234 138.078V149.812C352.161 149.99 353.177 150.078 354.281 150.078C356.906 150.078 358.219 147.88 358.219 143.484ZM369.547 135.984C371.151 135.984 372.328 136.312 373.078 136.969C373.839 137.625 374.219 138.63 374.219 139.984V149.906L376.047 150.297V151H372.016L371.719 149.531C370.531 150.719 369.016 151.312 367.172 151.312C364.661 151.312 363.406 149.854 363.406 146.938C363.406 145.958 363.594 145.151 363.969 144.516C364.354 143.87 364.964 143.38 365.797 143.047C366.63 142.703 367.839 142.516 369.422 142.484L371.625 142.422V140.125C371.625 139.115 371.438 138.37 371.062 137.891C370.698 137.411 370.13 137.172 369.359 137.172C368.318 137.172 367.365 137.417 366.5 137.906L365.969 139.734H365.094V136.531C366.781 136.167 368.266 135.984 369.547 135.984ZM371.625 143.516L369.578 143.578C368.182 143.63 367.234 143.901 366.734 144.391C366.245 144.88 366 145.698 366 146.844C366 148.677 366.745 149.594 368.234 149.594C368.943 149.594 369.552 149.516 370.062 149.359C370.583 149.193 371.104 148.984 371.625 148.734V143.516ZM381.719 151.312C380.719 151.312 379.969 151.016 379.469 150.422C378.979 149.828 378.734 148.995 378.734 147.922V137.625H376.812V136.922L378.766 136.312L380.344 132.984H381.328V136.312H384.688V137.625H381.328V147.641C381.328 148.318 381.479 148.828 381.781 149.172C382.094 149.516 382.5 149.688 383 149.688C383.604 149.688 384.339 149.604 385.203 149.438V150.453C384.839 150.703 384.312 150.906 383.625 151.062C382.938 151.229 382.302 151.312 381.719 151.312Z" fill="#FF5C5C"/>
</svg>
